<svg width="26" height="37" viewBox="0 0 26 37" fill="none" xmlns="http://www.w3.org/2000/svg">
<path d="M16.7817 24.2122V3.76517V32.888V24.2122ZM20.135 25.8829H16.7817V32.888H3.35368V3.76517H16.7817V22.5414H20.135V3.76517C20.135 2.83499 19.8087 2.04356 19.156 1.39088C18.5033 0.738204 17.7119 0.411865 16.7817 0.411865H3.35368C2.4235 0.411865 1.63207 0.738204 0.97939 1.39088C0.326713 2.04356 0.000373383 2.83499 0.000373383 3.76517V32.888C0.000373383 33.8182 0.326713 34.6097 0.97939 35.2623C1.63207 35.915 2.4235 36.2413 3.35368 36.2413H16.7817C17.7119 36.2413 18.5033 35.915 19.156 35.2623C19.8087 34.6097 20.135 33.8182 20.135 32.888V25.8829ZM10.0432 14.1118C9.57971 14.1118 9.18946 13.9451 8.87243 13.6118C8.55542 13.2784 8.39692 12.88 8.39692 12.4165C8.39692 11.9531 8.55747 11.5628 8.87856 11.2458C9.19968 10.9288 9.59606 10.7703 10.0677 10.7703C10.5148 10.7703 10.905 10.9308 11.2384 11.2519C11.5718 11.573 11.7385 11.9694 11.7385 12.441C11.7385 12.8881 11.5718 13.2784 11.2384 13.6118C10.905 13.9451 10.5066 14.1118 10.0432 14.1118ZM24.2911 25.8829C24.7383 25.8829 25.1285 25.7163 25.4619 25.3829C25.7952 25.0495 25.9619 24.6511 25.9619 24.1877C25.9619 23.7242 25.7952 23.3339 25.4619 23.0169C25.1285 22.6999 24.7383 22.5414 24.2911 22.5414H10.0677C9.59606 22.5414 9.19968 22.702 8.87856 23.023C8.55747 23.3442 8.39692 23.7405 8.39692 24.2122C8.39692 24.6593 8.55747 25.0495 8.87856 25.3829C9.19968 25.7163 9.59606 25.8829 10.0677 25.8829H24.2911Z" fill="#7025D9"/>
</svg>
